<?xml version="1.0" encoding="UTF-8"?>
<!DOCTYPE svg PUBLIC "-//W3C//DTD SVG 1.1//EN" "http://www.w3.org/Graphics/SVG/1.1/DTD/svg11.dtd">
<!-- Creator: CorelDRAW 2021 (64 Bit) -->
<svg xmlns="http://www.w3.org/2000/svg" xml:space="preserve" width="1000px" height="372px" version="1.1" style="shape-rendering:geometricPrecision; text-rendering:geometricPrecision; image-rendering:optimizeQuality; fill-rule:evenodd; clip-rule:evenodd"
viewBox="0 0 1000 372.18"
 xmlns:xlink="http://www.w3.org/1999/xlink"
 xmlns:xodm="http://www.corel.com/coreldraw/odm/2003">
 <defs>
  <style type="text/css">
   <![CDATA[
    .fil0 {fill:red}
   ]]>
  </style>
 </defs>
 <g id="Camada_x0020_1">
  <metadata id="CorelCorpID_0Corel-Layer"/>
  <path class="fil0" d="M848.37 222.87l0.33 0.41c4.25,5.29 10.08,12.45 18.98,12.45 6.12,0 19.5,-4.7 36.46,-10.61 9.55,-3.33 20.33,-7.18 31.05,-10.51 17.74,25.03 34.7,23.86 43.31,20.82 12.25,-4.28 21.5,-17.05 21.5,-29.61 0,-18.62 -13.84,-28.37 -19.62,-31.64 3.3,-1.82 5.54,-5.47 5.54,-9.69 0,-5.95 -4.6,-10.88 -10.19,-10.88 -5.6,0 -10.2,4.93 -10.2,10.88 0,2.1 0.59,4.03 1.54,5.73l-10.73 -2.64c2.95,-1.89 4.95,-5.34 4.95,-9.3 0,-5.98 -4.59,-10.88 -10.19,-10.88 -5.6,0 -10.19,4.9 -10.19,10.88 0,2.12 0.59,4.14 1.59,5.82l-9.55 -2.37c2.95,-1.88 4.89,-5.33 4.89,-9.31 0,-5.99 -4.59,-10.86 -10.19,-10.86 -5.6,0 -10.19,4.87 -10.19,10.86 0,2.14 0.59,4.16 1.59,5.79l-9.84 -2.46c2.59,-1.95 4.36,-5.2 4.36,-8.86 0,-5.96 -4.6,-10.88 -10.19,-10.88 -5.6,0 -10.19,4.92 -10.19,10.88 0,1.89 0.47,3.66 1.23,5.23l-8.95 -2.21c2.71,-1.93 4.47,-5.29 4.47,-8.98 0,-5.98 -4.59,-10.88 -10.19,-10.88 -5.59,0 -10.19,4.9 -10.19,10.88 0,1.94 0.47,3.76 1.35,5.32l-12.13 -3.02c2.95,-1.88 4.95,-5.33 4.95,-9.29 0,-5.98 -4.6,-10.88 -10.2,-10.88 -5.59,0 -10.19,4.9 -10.19,10.88 0,2.19 0.59,4.21 1.65,5.91l-13.84 -3.47 -13.57 18.77 -12.94 -0.32 -386.58 -4.47c-9.31,-10.62 -13.83,-14.93 -8.21,-28.91 6.62,-16.47 14.1,-21.19 31.75,-22.17l0.06 -0.01 1.02 -0.07c19.25,-1.08 47.83,-0.89 47.83,-27.34 0,-10.28 -7.57,-20.34 -14.67,-27.14 -15.58,-14.88 -38.22,-24.18 -59.9,-21.61 -27.16,3.23 -54.83,12.88 -80.69,21.61 -7.34,2.47 -14.66,4.98 -22.02,7.37 -33.17,10.75 -59,-0.36 -88.65,-15.73 -20.44,-10.59 -42.45,-19.47 -64.49,-26.08 -17.86,-5.36 -38.9,-10.27 -57.62,-10.27 -0.94,0 -1.88,0 -2.83,0 -17.35,-0.1 -32.39,1.08 -47.89,9.97 -24.72,14.18 -37,41.21 -43.86,67.69 -4.25,16.41 -5.8,34.53 -6.71,51.42 -1.1,20.66 -1.18,41.44 -1.18,62.12 0,22.51 -0.11,45.56 1.76,68 1.36,16.4 3.95,33.5 10.55,48.69 11.28,25.98 29.41,46.52 56,57.05 14.73,5.84 29.28,7.58 44.96,7.17 0.65,0 1.29,-0.05 1.91,-0.07 24.45,0.01 57.7,-11.7 79.98,-21.38 9.5,-4.13 18.88,-8.53 28.24,-12.96 12.2,-5.77 40.14,-19.93 53.29,-19.93 13.4,0 21.86,5.86 32.35,13.09 16.45,11.35 29.55,18.5 50.31,18.5 17,0 34.15,-4.28 47.32,-15.47 6.91,-5.88 15.09,-16.4 15.09,-25.97 0,-7.52 -4.84,-14.94 -10.11,-19.95 -7.51,-7.13 -17.32,-11.2 -27.48,-12.68 -11.76,-1.72 -26.39,-15.67 -26.39,-27.91 0,-6.65 2.26,-14.01 5.8,-20.03l447.07 -5.06c5.88,-0.11 24.44,0.22 37.72,0.57zm-162 -58.71l-30.4 -0.36 0 49.49 30.4 -0.35 0 -48.78zm30.41 0.35l30.86 24.04 -30.86 24.03 30.41 -0.35 15.54 -11.93 14.86 11.58 30.41 -0.36 -29.95 -22.97 29.95 -22.97 -30.41 -0.36 -14.86 11.57 -15.54 -11.92 -30.41 -0.36zm-643.81 -151.55c-32.3,7.85 -46.98,37.4 -54.75,67.39 -6.95,26.81 -7.54,67.74 -7.54,110.86 0,53.58 0.76,87.91 11.43,112.44 10.97,25.28 27.81,42.59 50.14,51.38 0.24,0.09 0.48,0.19 0.72,0.28l0 -18.19 0 -1.28 0 -128.81 -31.78 0 0 17.73 13.98 0 0 97.8c-7,-7.31 -12.46,-16.15 -16.74,-26 -5.26,-12.11 -7.21,-26.65 -8.3,-39.71 -1.79,-21.63 -1.65,-43.94 -1.65,-65.64 0,-20.17 0.06,-40.45 1.14,-60.59 0.8,-14.89 2.08,-31.34 5.83,-45.8 3.63,-13.99 9.43,-30.15 19.72,-41.41l0 136.52 17.8 0c0,-55.66 0,-111.31 0,-166.97zm177.97 300.64c6.48,-2.55 12.49,-4.53 17.8,-5.6l0 -100.39 0 -17.93 0 -79.35 0 -18.01 0 0c-2.71,-0.44 -5.41,-0.97 -8.1,-1.58l-0.28 -0.06 -0.55 -0.13 -0.28 -0.07c-1.2,-0.28 -2.41,-0.59 -3.61,-0.9l-0.27 -0.08 -0.56 -0.15 -0.28 -0.07 -0.83 -0.23 -0.27 -0.08 -0.56 -0.15 -0.27 -0.08 -0.78 -0.23 -0.1 -0.03 -0.78 -0.23 -0.28 -0.09c-8.87,-2.67 -17.71,-6.2 -26.69,-10.32l-0.26 -0.12 -0.06 -0.03 -0.21 -0.1 -0.52 -0.24 -0.23 -0.1 -0.03 -0.02 -0.26 -0.12 -0.26 -0.12 -0.26 -0.12 -0.15 -0.07 -0.11 -0.05 -0.26 -0.13 -0.26 -0.12 -0.26 -0.12 -0.26 -0.13 -0.27 -0.12 -0.26 -0.13 -0.25 -0.12 -0.01 0 -0.26 -0.13 -0.26 -0.12 -0.27 -0.13 -0.17 -0.08 -0.09 -0.04 -0.26 -0.13 -0.52 -0.25 -0.1 -0.05 -0.17 -0.08 -0.26 -0.13 -0.26 -0.12 -0.26 -0.13 -0.02 -0.01 -0.25 -0.12 -0.52 -0.26 -0.2 -0.1 -0.07 -0.03 -0.26 -0.13 -0.26 -0.13 -0.27 -0.13 -0.11 -0.06 -0.15 -0.07 -0.83 -0.41 -0.23 -0.11 -0.52 -0.27 -0.23 -0.11 -0.04 -0.02 -0.26 -0.13 -0.27 -0.14 -0.26 -0.13 -0.14 -0.07 -0.13 -0.06 -0.26 -0.14 -0.27 -0.13 -0.27 -0.14 -0.05 -0.03 -0.21 -0.1 -0.27 -0.14 -0.51 -0.26 -0.02 -0.01 -0.53 -0.27 -0.27 -0.14 -0.16 -0.08 -0.1 -0.05 -0.27 -0.14 -0.53 -0.28 -0.09 -0.04 -0.18 -0.09 -0.27 -0.14 -0.27 -0.14 -0.26 -0.14 -0.93 -0.48 0 19.97 0 122.3 0 19.71 0 102.82c4.17,-1.94 8.3,-3.88 12.39,-5.8 1.81,-0.86 3.61,-1.72 5.41,-2.56l0 -102.89c8.53,-3.94 17.66,-7.86 26.69,-10.78l0 101.77zm0 -206.96l0 86.57c-9.01,2.54 -18,6.07 -26.69,9.88l0 -105.82c8.94,3.79 17.79,6.97 26.69,9.37zm-97.88 248.01c5.73,-1.66 11.7,-3.6 17.79,-5.8l0 -295.54c-5.82,-2.22 -11.8,-4.33 -17.79,-6.24l0 307.58zm124.58 -47.54c6.8,0.11 12.57,1.44 17.79,3.51l0 -18.8 0 -21.43 0 -185.8c8.96,-0.72 17.78,-2.57 26.57,-5.41 7.47,-2.42 14.9,-4.97 22.35,-7.48 23.74,-8.01 50.04,-17.35 74.95,-20.31 13.13,-1.56 27.5,4.97 36.86,13.92 0.91,0.87 2.38,2.41 3.65,4 -6.2,0.92 -15.6,1.28 -18.8,1.47l-0.11 0 -1.01 0.07c-28.68,1.63 -45.69,13.17 -56.46,39.98 -6.36,15.81 -11.48,31.71 -17.41,47.61 -3.81,10.21 -8.2,19.97 -13,29.56 -5.14,10.27 -11.71,19.83 -16.52,29.62 -4.56,9.29 -7.2,19.74 -7.2,29.77 0,26.54 25.01,52.32 50.75,56.08 3.16,0.47 8.75,2.16 11.84,4.9 4.32,3.34 19.19,12.4 19.19,-0.44 0,-6.03 -8.61,-19.19 -28.46,-22.07 -17.9,-2.64 -35.52,-21.69 -35.52,-38.47 0,-6.61 1.68,-13.85 4.71,-20.52 4.09,-8.98 11.03,-18.92 15.85,-28.34 16.92,-33.1 18.03,-45.59 32.28,-81.06 8.07,-20.07 18.85,-27.61 41.06,-28.86l1.01 -0.07c24.39,-1.38 37.82,-2.14 37.82,-16.68 0,-5.33 -4.24,-12.63 -11.37,-19.42 -11.14,-10.67 -30.52,-21.19 -51.26,-18.72 -24.81,2.94 -52.15,12.19 -78.54,21.12 -7.29,2.44 -14.78,5.04 -22.14,7.41 -13.79,4.47 -26.35,5.73 -38.88,4.35l0 240.51zm-177.97 36.21c7.76,0.69 18.95,0.49 26.69,-0.67l0 -302.61c5.79,1.15 11.77,2.63 17.8,4.34l0 294.38 0 18.29 0 0c-20.2,4.97 -41.97,6.57 -62.29,1.17l0 -18.61 0 -301.25c5.73,-1.03 11.71,-1.01 17.57,-0.98l0.23 0 0 305.94zm169.07 -260.02c-19.12,-3.31 -37.51,-11.42 -57.27,-21.66 -4.27,-2.21 -8.95,-4.49 -13.92,-6.77l0 283.07c-2.2,0.99 -4.42,1.97 -6.65,2.94 -3.72,1.62 -7.45,3.16 -11.15,4.61l0 -298.24c-25.53,-10.17 -52.56,-18.61 -80.26,-18.77 -6.03,-0.03 -11.91,0.01 -17.62,0.86l0 -17.96c6.48,-0.77 12.53,-0.73 17.72,-0.7 38.62,0 86.04,17.52 120.07,35.16 18.19,9.43 33.83,16.22 49.08,19.36l0 18.1zm144.16 77.67l0 11.03 0 11.03 0 11.03 0 22.06 30.22 -0.35 0 -21.78 46.57 -0.1 0 -10.68 -46.57 -0.11 0 -10.88 60.81 0.42 0 -10.61 -91.03 -1.06zm151.85 43.06l0 -41.29 -30.41 -0.35 0 41.85 0 10.47 91.22 -1.06 0 -10.04 -60.81 0.42z"/>
 </g>
</svg>
